<?xml version="1.0" standalone="no"?>
<!DOCTYPE svg PUBLIC "-//W3C//DTD SVG 20010904//EN"
 "http://www.w3.org/TR/2001/REC-SVG-20010904/DTD/svg10.dtd">
<svg version="1.0" xmlns="http://www.w3.org/2000/svg"
 width="240.000000pt" height="240.000000pt" viewBox="0 0 240.000000 240.000000"
 preserveAspectRatio="xMidYMid meet">
<metadata>
Created by potrace 1.11, written by Peter Selinger 2001-2013
</metadata>
<g transform="translate(0.000000,240.000000) scale(0.100000,-0.100000)"
fill="#000000" stroke="none">
<path d="M1078 2395 c-2 -2 -25 -6 -53 -9 -188 -25 -397 -113 -555 -235 -67
-52 -180 -167 -235 -240 -105 -139 -190 -343 -220 -531 -16 -97 -11 -314 8
-411 56 -275 219 -544 427 -702 30 -23 57 -45 60 -49 11 -15 166 -99 235 -127
81 -34 201 -67 283 -78 72 -9 269 -9 347 0 111 13 256 62 377 125 332 173 562
486 628 855 21 118 20 324 -3 438 -26 130 -92 296 -160 404 -63 100 -199 250
-282 311 -22 16 -48 36 -58 45 -61 55 -322 164 -442 185 -22 4 -49 9 -60 11
-23 5 -292 12 -297 8z"/>
</g>
</svg>
